<?xml version="1.0" encoding="utf-8"?>
<!-- Generator: Adobe Illustrator 15.0.0, SVG Export Plug-In . SVG Version: 6.00 Build 0)  -->
<!DOCTYPE svg PUBLIC "-//W3C//DTD SVG 1.1//EN" "http://www.w3.org/Graphics/SVG/1.1/DTD/svg11.dtd">
<svg version="1.1"
	 id="Layer_1" inkscape:version="0.48.2 r9819" sodipodi:docname="AJAX.svg" xmlns:inkscape="http://www.inkscape.org/namespaces/inkscape" xmlns:sodipodi="http://sodipodi.sourceforge.net/DTD/sodipodi-0.dtd" xmlns:rdf="http://www.w3.org/1999/02/22-rdf-syntax-ns#" xmlns:svg="http://www.w3.org/2000/svg" xmlns:cc="http://creativecommons.org/ns#" xmlns:dc="http://purl.org/dc/elements/1.1/"
	 xmlns="http://www.w3.org/2000/svg" xmlns:xlink="http://www.w3.org/1999/xlink" x="0px" y="0px" width="1000px" height="1000px"
	 viewBox="-405.581 -403.838 1000 1000" enable-background="new -405.581 -403.838 1000 1000" xml:space="preserve">
<rect x="-405.581" y="-403.838" fill="#FFFFFF" width="1000" height="1000"/>
<sodipodi:namedview  pagecolor="#ffffff" objecttolerance="10" id="namedview37" inkscape:window-height="1004" borderopacity="1" gridtolerance="10" bordercolor="#666666" guidetolerance="10" inkscape:pageopacity="0" inkscape:pageshadow="2" inkscape:window-width="1280" showgrid="false" fit-margin-top="0" fit-margin-left="0" inkscape:cy="98.548635" fit-margin-right="0" fit-margin-bottom="0" inkscape:zoom="4.72" inkscape:cx="60.620948" inkscape:window-x="-8" inkscape:window-y="-8" inkscape:window-maximized="1" inkscape:current-layer="g7">
	</sodipodi:namedview>
<polygon id="polygon9" fill="#FFFFFF" points="-128.569,42.786 320.355,42.786 273.204,302.122 -86.329,302.122 "/>
<path id="path11" inkscape:connector-curvature="0" fill="#003876" d="M18.188,66.984c5.959,0,11.979,2.866,11.979,10.318
	c0.117,6.193-4.244,10.146-11.979,10.314C18.188,80.74,18.188,73.864,18.188,66.984z"/>
<path id="path13" inkscape:connector-curvature="0" fill="#003876" d="M113.106,149.584c16.281,0,16.508,18.568-0.111,18.568
	L113.106,149.584z"/>
<polygon id="polygon15" fill="#003876" points="55.901,154.25 62.349,176.344 49.713,176.406 "/>
<polygon id="polygon17" fill="#003876" points="95.752,240.273 102.888,263.097 89.606,263.07 "/>
<g id="g19">
	<g id="g21">
		<path id="path23" inkscape:connector-curvature="0" fill="#003876" d="M407.377,115.878
			c11.319-44.946,27.548-98.356,37.141-140.312c-45.483-10-96.756-14.213-143.067-23.388c-30.065,15.33-60.004,38.127-88.038,50.901
			c13.783-61.879,28.871-124.568,42.9-186.198c-13.669,0.859-25.046,1.662-38.515-0.775c-21.396-3.868-48.975-31.708-64.438-44.443
			c-21.611-17.789-59.28-50.133-59.28-50.133S37.06-229.639,7.068-204.647c-18.845,15.706-35.871,26.68-74.285,22.014
			C-53.967-120.224-24.572,1.7-24.572,1.7s-62.229-34.927-86.666-49.523c-47.449,8.035-96.18,14.785-144.441,22.01
			c8.736,42.501,25.098,94.358,37.145,141.69c4.152,16.309,10.671,36.926,8.256,50.901c-2.316,13.354-12.92,18.775-20.635,31.638
			c16.89,10.318,39.161,19.631,63.382,32.329c18.983,9.953,52.146,23.354,54.924,44.711c1.854,14.26-6.771,26.454-12.383,38.519
			c-5.449,11.715-11.189,23.023-17.327,34.39h196.16v122.431h81.164V348.365H331.66c-7.126-11.117-13.791-22.51-19.201-34.39
			c-5.533-12.156-13.139-26.466-11.006-39.896c3.347-21.017,36.593-31.442,55.026-41.27c23.001-12.257,44.443-24.328,63.276-33.012
			c-4.697-13.607-18.224-18.934-20.629-33.013C396.687,152.554,403.202,132.463,407.377,115.878z M190.542,185.029l-4.21,17.025
			c0,0-23.845,0-35.767,0c0-22.467-0.43-65.544-0.43-65.544l17.882-0.115v48.722L190.542,185.029z M129.499,55.376l18.914-0.027
			l22.352,33.016V55.349h16.508v66.028h-16.738l-23.157-33.929v33.929h-17.886V55.376H129.499z M88.92,52.597
			c19.244,0,34.847,15.606,34.847,34.85c0,19.248-15.603,34.85-34.847,34.85c-19.248,0-34.85-15.603-34.85-34.85
			C54.07,68.204,69.669,52.597,88.92,52.597z M90.035,202.054c-6.42,0-19.257,0-19.257,0l-4.098-11.263l-20.752,0.031l-3.668,11.231
			c0,0-11.836,0-18.257,0c7.34-22.463,13.234-44.086,21.581-65.544h22.012C75.591,158.321,82.81,179.476,90.035,202.054z
			 M-76.843,71.281h-12.383v50.096h-17.882c0-16.048,0-50.264,0-50.264l-13.756-0.058l2.75-15.706c0,0,27.515,0,41.271,0V71.281z
			 M-74.552,87.448c0-19.244,15.603-34.85,34.848-34.85c19.248,0,34.85,15.606,34.85,34.85c0,19.248-15.602,34.85-34.85,34.85
			C-58.95,122.298-74.552,106.699-74.552,87.448z M9.39,288.289h-36.711c0,0,0-43.104,0-65.114H-9.44c0,16.508,0,49.527,0,49.527
			h22.613L9.39,288.289z M-2.132,202.081l-3.095-30.464l-13.672,30.185l-14.53-29.751l-4.473,30.008h-16.506l8.396-65.544h15.934
			l11.005,28.887l11.007-28.887H8.442l7.31,65.544L-2.132,202.081z M1.565,121.377V55.349c30.867-0.572,44.796-1.001,44.796,21.354
			c0,6.708-3.538,11.903-10.748,15.13c4.394,8.903,13.156,29.578,13.156,29.578l-19.691-0.034L17.987,91.745l0.086,29.631
			C18.073,121.377,7.068,121.377,1.565,121.377z M55.387,288.289l-33.188-0.088v-65.026h33.016l3.352,14.044H38.706v11.179H52.29
			l0.172,13.326H38.706v11.436l21.066-0.173L55.387,288.289z M109.779,288.289l-2.866-10.146H85.25l-3.152,10.261l-18.054-0.115
			l21.091-65.114h22.354l21.607,65.114H109.779z M112.995,181.51l0.426,20.545l-17.886,0.026c0,0-0.428-42.643-0.428-64.196
			c26.479,0,46.088-3.496,46.088,20.924C141.191,172.565,136.552,181.851,112.995,181.51z M165.262,251.148v14.873l-12.379-0.088
			v22.355h-17.19c0,0,0.169-43.104,0.169-65.114h30.782c1.834,5.042,4.121,15.245,4.121,15.245h-17.882v12.644L165.262,251.148z
			 M177.648,288.691v-15.989c0,0,24.762,5.388,24.935-3.5c0.119-6.166-8.441-7.44-15.199-10.641
			c-7.84-3.714-10.249-9.301-10.249-16.009c0-16.681,12.037-21.811,26.039-21.811c5.342,0,7.836,0.829,14.459,1.772
			c0,5.503-0.084,10.464-0.084,15.967c-6.869-3.081-23.562-4.417-23.562,3.377c0,7.793,25.111,7.049,27.168,24.593
			C223.419,285.741,204.602,291.527,177.648,288.691z M234.479,202.054h-35.771l-0.427-65.544h34.394l2.747,14.903h-19.255v10.43
			h13.354v13.646h-13.354v11.289l21.036-0.058L234.479,202.054z M238.178,71.857h-12.383v49.52h-17.886c0-16.048,0-49.574,0-49.574
			l-13.753,0.054l3.354-16.508c0,0,26.914,0,40.667,0V71.857L238.178,71.857z M275.659,122.298c-19.243,0-34.85-15.603-34.85-34.85
			c0-19.244,15.606-34.85,34.85-34.85c19.244,0,34.851,15.606,34.851,34.85C310.51,106.695,294.903,122.298,275.659,122.298z"/>
	</g>
</g>
<path id="ellipse25" sodipodi:cx="66.410004" sodipodi:cy="98.160004" sodipodi:rx="4.4200001" sodipodi:ry="4.5949998" fill="#003876" d="
	M-39.532,69.566c9.593,0,17.37,8.085,17.37,18.054c0,9.973-7.776,18.058-17.37,18.058c-9.591,0-17.367-8.085-17.367-18.058
	C-56.899,77.651-49.123,69.566-39.532,69.566z"/>
<path id="ellipse27" sodipodi:cx="99.143997" sodipodi:cy="98.160004" sodipodi:rx="4.4200001" sodipodi:ry="4.5949998" fill="#003876" d="
	M89.093,69.566c9.593,0,17.367,8.085,17.367,18.054c0,9.973-7.774,18.058-17.367,18.058S71.726,97.594,71.726,87.62
	C71.726,77.651,79.5,69.566,89.093,69.566z"/>
<path id="ellipse29" sodipodi:cx="146.58099" sodipodi:cy="98.160004" sodipodi:rx="4.4200001" sodipodi:ry="4.5949998" fill="#003876" d="
	M275.491,69.566c9.589,0,17.367,8.085,17.367,18.054c0,9.973-7.778,18.058-17.367,18.058c-9.594,0-17.372-8.085-17.372-18.058
	C258.119,77.651,265.897,69.566,275.491,69.566z"/>
</svg>
